<?xml version="1.0" encoding="UTF-8"?>
<svg width="512" height="512" viewBox="0 0 512 512" fill="none" xmlns="http://www.w3.org/2000/svg">
  <rect width="512" height="512" rx="128" fill="#0EA5E9"/>
  <path d="M256 128C203.07 128 160 171.07 160 224C160 276.93 203.07 320 256 320C308.93 320 352 276.93 352 224C352 171.07 308.93 128 256 128ZM256 288C220.7 288 192 259.3 192 224C192 188.7 220.7 160 256 160C291.3 160 320 188.7 320 224C320 259.3 291.3 288 256 288Z" fill="white"/>
  <path d="M256 352C176.7 352 112 416.7 112 496C112 504.8 119.2 512 128 512H384C392.8 512 400 504.8 400 496C400 416.7 335.3 352 256 352ZM256 480C238.3 480 224 465.7 224 448C224 430.3 238.3 416 256 416C273.7 416 288 430.3 288 448C288 465.7 273.7 480 256 480Z" fill="white"/>
  <path d="M256 96C264.8 96 272 88.84 272 80V32C272 23.16 264.8 16 256 16C247.2 16 240 23.16 240 32V80C240 88.84 247.2 96 256 96Z" fill="white"/>
  <path d="M125.3 108.7C121.2 104.6 115.6 102.5 110 102.5C104.4 102.5 98.84 104.6 94.63 108.7C90.53 112.9 88.5 118.4 88.5 124C88.5 129.6 90.53 135.2 94.63 139.3L142.6 187.3C146.8 191.5 152.4 193.5 158 193.5C163.6 193.5 169.1 191.5 173.4 187.3C177.5 183.2 179.5 177.6 179.5 172C179.5 166.4 177.5 160.8 173.4 156.7L125.3 108.7Z" fill="white"/>
  <path d="M386.7 108.7L338.6 156.7C334.5 160.8 332.5 166.4 332.5 172C332.5 177.6 334.5 183.2 338.6 187.3C342.9 191.5 348.4 193.5 354 193.5C359.6 193.5 365.2 191.5 369.4 187.3L417.4 139.3C421.5 135.2 423.5 129.6 423.5 124C423.5 118.4 421.5 112.9 417.4 108.7C413.2 104.6 407.6 102.5 402 102.5C396.4 102.5 390.8 104.6 386.7 108.7Z" fill="white"/>
</svg>
